<svg width="24" height="24" viewBox="0 0 24 24" fill="none" xmlns="http://www.w3.org/2000/svg">
<g clip-path="url(#clip0_2_3024)">
<path d="M34.5907 34.3343C39.1795 33.9038 43.6881 33.0457 48.0231 31.7779C44.3519 28.5557 42.3233 24.3673 42.3314 20.0264V18.5628C42.3314 15.4575 40.7745 12.4794 38.0033 10.2836C35.232 8.08783 31.4734 6.85425 27.5543 6.85425C23.6351 6.85425 19.8765 8.08783 17.1053 10.2836C14.334 12.4794 12.7771 15.4575 12.7771 18.5628V20.0264C12.7846 24.3676 10.7551 28.556 7.08301 31.7779C11.3511 33.0268 15.8508 33.8952 20.5179 34.3343M34.5907 34.3343C29.9161 34.7736 25.1924 34.7736 20.5179 34.3343M34.5907 34.3343C34.9456 35.2121 35.0338 36.144 34.8482 37.054C34.6627 37.964 34.2085 38.8264 33.5227 39.5711C32.8369 40.3157 31.9389 40.9215 30.9018 41.3391C29.8646 41.7568 28.7177 41.9745 27.5543 41.9745C26.3909 41.9745 25.2439 41.7568 24.2068 41.3391C23.1696 40.9215 22.2716 40.3157 21.5858 39.5711C20.9001 38.8264 20.4459 37.964 20.2603 37.054C20.0747 36.144 20.163 35.2121 20.5179 34.3343" stroke="white" stroke-width="1.5" stroke-linecap="round" stroke-linejoin="round"/>
<path d="M16.0001 9C13.7944 9 12 7.2057 12 5.00007C12 2.79444 13.7944 1 16.0001 1C18.2057 1 20 2.79444 20 5.00007C20 7.2057 18.2057 9 16.0001 9Z" fill="#FF0024"/>
</g>
<defs>
<clipPath id="clip0_2_3024">
<rect width="24" height="24" fill="white"/>
</clipPath>
</defs>
</svg>
