<svg width="156" height="55" viewBox="0 0 156 55" fill="none" xmlns="http://www.w3.org/2000/svg">
<g clip-path="url(#clip0_2_2878)">
<path d="M18.1138 41.9181C11.32 41.9181 7.31494 37.6741 7.31494 30.4821C7.31494 23.4156 11.4039 18.8579 17.8203 18.8579C23.9011 18.8579 28.0529 23.1647 28.0529 29.1859C28.0529 30.733 27.1723 31.6529 25.6206 31.6529H12.5152V31.8202C12.5152 35.5207 14.675 37.904 18.0719 37.904C20.4204 37.904 21.9511 37.0887 23.6286 34.9562C24.1737 34.3499 24.656 34.1199 25.39 34.1199C26.5642 34.1199 27.4868 34.8726 27.4868 36.127C27.4868 36.5242 27.3609 36.9841 27.1303 37.4441C25.6625 40.2665 22.3495 41.9181 18.1138 41.9181ZM12.5572 28.2242H22.9366C22.8317 25.0045 20.7769 22.893 17.8413 22.893C14.9056 22.893 12.7668 25.0463 12.5572 28.2242ZM34.029 41.8973C32.4983 41.8973 31.4289 40.9146 31.4289 39.1584V21.513C31.4289 19.9033 32.3725 18.8789 33.9241 18.8789C35.4549 18.8789 36.5033 19.9033 36.5033 21.513V23.0602H36.6081C37.8034 20.4259 40.1099 18.8997 43.5278 18.8997C48.4344 18.8997 51.2233 22.0358 51.2233 27.158V39.1584C51.2233 40.9146 50.1539 41.8973 48.6232 41.8973C47.0924 41.8973 46.0021 40.9146 46.0021 39.1584V28.2032C46.0021 25.0673 44.5343 23.3111 41.5567 23.3111C38.5582 23.3111 36.6501 25.4645 36.6501 28.6423V39.1584C36.6501 40.9146 35.5597 41.8973 34.029 41.8973Z" fill="white"/>
<g filter="url(#filter0_d_2_2878)">
<path d="M95.589 48.7077V34.5106C92.3683 37.4094 87.1298 41.1834 84.9135 42.7081C74.4695 49.7888 66.4902 49.6582 63.806 48.7077C53.1669 45.3336 55.9567 34.2333 58.6816 29.1049C63.4155 19.2678 72.123 12.096 75.8846 9.73973C88.9643 1.13828 97.1551 3.5421 99.6157 5.81919C104.105 9.14571 103.397 14.9276 102.483 17.4027L95.0402 17.4621C98.212 9.00314 91.3188 9.77934 87.4754 11.2248C80.3017 13.2207 72.2854 21.5608 69.1746 25.4813C63.806 32.372 63.3586 37.1044 63.806 38.6093C64.1476 43.5041 71.2688 41.322 74.7868 39.6191C80.6433 37.3856 87.313 31.679 89.9158 29.1049H75.8846V21.9172H102.787V48.7077H95.589Z" fill="#14ADC6"/>
</g>
<path d="M114.758 41.8345C110.46 41.8345 107.335 39.1376 107.335 35.1443C107.335 31.2138 110.376 28.8514 115.785 28.5169L121.678 28.1824V26.5934C121.678 24.2727 120.105 22.9347 117.526 22.9347C115.492 22.9347 114.171 23.6247 112.871 25.5272C112.326 26.2381 111.634 26.5726 110.753 26.5726C109.474 26.5726 108.551 25.7363 108.551 24.4819C108.551 24.001 108.677 23.541 108.908 23.0602C110.04 20.4886 113.479 18.8579 117.736 18.8579C123.251 18.8579 126.836 21.7639 126.836 26.2171V39.2839C126.836 40.9565 125.767 41.8973 124.299 41.8973C122.873 41.8973 121.887 41.0401 121.803 39.4929V37.9459H121.699C120.42 40.3501 117.631 41.8345 114.758 41.8345ZM116.352 37.904C119.287 37.904 121.678 35.9388 121.678 33.2628V31.5693L116.519 31.8828C114.003 32.0501 112.556 33.1791 112.556 34.9353C112.556 36.7542 114.087 37.904 116.352 37.904ZM132.791 41.4791C131.344 41.4791 130.422 40.622 130.422 39.2839C130.422 38.5522 130.61 38.0504 131.177 37.3605L141.954 23.4574V23.3738H132.435C131.072 23.3738 130.275 22.6211 130.275 21.3249C130.275 20.0496 131.072 19.3179 132.435 19.3179H145.351C147.008 19.3179 147.993 20.2169 147.993 21.6803C147.993 22.4748 147.742 23.0811 147.071 23.9592L136.922 37.3186V37.4232H146.295C147.658 37.4232 148.455 38.1549 148.455 39.4512C148.455 40.7265 147.658 41.4791 146.295 41.4791H132.791Z" fill="white"/>
</g>
<defs>
<filter id="filter0_d_2_2878" x="52.1929" y="3.67969" width="54.9697" height="53.4934" filterUnits="userSpaceOnUse" color-interpolation-filters="sRGB">
<feFlood flood-opacity="0" result="BackgroundImageFix"/>
<feColorMatrix in="SourceAlpha" type="matrix" values="0 0 0 0 0 0 0 0 0 0 0 0 0 0 0 0 0 0 127 0" result="hardAlpha"/>
<feOffset dy="4"/>
<feGaussianBlur stdDeviation="2"/>
<feComposite in2="hardAlpha" operator="out"/>
<feColorMatrix type="matrix" values="0 0 0 0 0 0 0 0 0 0 0 0 0 0 0 0 0 0 0.22 0"/>
<feBlend mode="normal" in2="BackgroundImageFix" result="effect1_dropShadow_2_2878"/>
<feBlend mode="normal" in="SourceGraphic" in2="effect1_dropShadow_2_2878" result="shape"/>
</filter>
<clipPath id="clip0_2_2878">
<rect width="155" height="54.8596" fill="white" transform="translate(0.5)"/>
</clipPath>
</defs>
</svg>
